<svg t="1751893054288" class="icon" viewBox="0 0 1124 1024" version="1.1" xmlns="http://www.w3.org/2000/svg" p-id="104968" width="16" height="16"><path d="M832.556522 237.412174H292.507826l36.619131-142.469565A115.867826 115.867826 0 0 1 441.433043 7.902609h242.198261a115.867826 115.867826 0 0 1 112.306087 87.04l36.619131 142.469565z m-450.782609-69.231304h361.516522l-14.469565-55.652174a46.413913 46.413913 0 0 0-45.189566-35.06087H441.433043a46.525217 46.525217 0 0 0-45.189565 35.06087l-14.469565 55.652174z" fill="#B0C7E0" p-id="104969"></path><path d="M70.455652 405.370435h984.264348v561.530435a46.191304 46.191304 0 0 1-46.191304 46.191304H116.535652a46.202435 46.202435 0 0 1-46.191304-46.191304V405.370435h0.111304z" fill="#F8A92B" p-id="104970"></path><path d="M54.873043 156.493913h1015.318261a46.191304 46.191304 0 0 1 46.191305 46.191304v202.685218H8.793043V202.685217a46.191304 46.191304 0 0 1 46.08-46.191304z" fill="#FFC83A" p-id="104971"></path><path d="M345.488696 405.370435H219.38087v111.638261h126.107826V405.370435z" fill="#FF5336" p-id="104972"></path><path d="M282.490435 594.031304a76.81113 76.81113 0 0 1-76.911305-76.8V464.13913h153.711305v53.092174a76.8 76.8 0 0 1-76.8 76.8z" fill="#32536B" p-id="104973"></path><path d="M314.768696 521.126957a32.389565 32.389565 0 1 1-32.278261-32.389566 32.278261 32.278261 0 0 1 32.278261 32.389566z" fill="#B0C7E0" p-id="104974"></path><path d="M905.683478 405.370435H779.575652v111.638261h126.107826V405.370435z" fill="#FF5336" p-id="104975"></path><path d="M842.573913 594.031304a76.81113 76.81113 0 0 1-76.8-76.8V464.13913h153.711304v53.092174a76.81113 76.81113 0 0 1-76.911304 76.8z" fill="#32536B" p-id="104976"></path><path d="M874.963478 521.126957a32.389565 32.389565 0 1 1-64.77913 0 32.389565 32.389565 0 0 1 64.77913 0z" fill="#B0C7E0" p-id="104977"></path><path d="M219.492174 405.370435H70.455652v34.615652h149.036522v-34.615652zM1054.72 405.370435H905.683478v34.615652h149.036522v-34.615652z" fill="#F29C20" p-id="104978"></path><path d="M905.683478 405.370435H779.575652v34.615652h126.107826v-34.615652zM345.488696 405.370435H219.38087v34.615652h126.107826v-34.615652z" fill="#F9432A" p-id="104979"></path><path d="M779.575652 405.370435h-434.086956v34.615652h434.086956v-34.615652z" fill="#F29C20" p-id="104980"></path></svg>